<svg width="63" height="80" viewBox="0 0 63 80" fill="none" xmlns="http://www.w3.org/2000/svg">
<g clip-path="url(#clip0_45_8)">
<path d="M53.7248 0H20.2752C15.1467 0 11 4.82015 11 10.7603V38.3112C11 44.2513 15.1467 49.0715 20.2752 49.0715H26.0519C30.9516 49.0715 34.9267 53.6816 34.9267 59.3718V78.8424C34.8599 79.4024 35.2412 79.9224 35.7941 79.9924C36.1182 80.0324 36.4328 79.9124 36.6521 79.6724C36.6521 79.6724 49.216 65.212 54.3921 59.0718C60.1688 52.2216 63 45.7314 63 34.9411V10.7603C63 4.82015 58.8438 0 53.7248 0Z" fill="#3392D0"/>
<path d="M21.3721 30H4.64059C2.07873 30 0 32.4135 0 35.3804V49.1547C0 52.1283 2.07873 54.5351 4.64059 54.5351H7.52665C9.98044 54.5351 11.9638 56.8419 11.9638 59.6888V69.4228C11.932 69.7029 12.1227 69.9629 12.3961 69.9962C12.555 70.0162 12.7139 69.9562 12.822 69.8362C12.822 69.8362 19.1027 62.609 21.6963 59.5355C24.5824 56.1152 26 52.8616 26 47.4746V35.3871C26 32.4135 23.9213 30.0067 21.3658 30.0067" fill="#9CD2ED"/>
</g>
<defs>
<clipPath id="clip0_45_8">
<rect width="63" height="80" fill="white"/>
</clipPath>
</defs>
</svg>
