<svg width="52" height="60" viewBox="0 0 52 60" fill="none" xmlns="http://www.w3.org/2000/svg">
<g clip-path="url(#clip0_68_2)">
<path d="M51.9384 46.831L48.1545 13.7876C47.8341 11.0713 46.3304 8.83858 44.2906 7.75775V32.2256C44.2906 33.1145 43.9886 33.9535 43.4401 34.5793L29.9564 50.1375C29.4141 50.7703 28.6869 51.1187 27.9166 51.1187H9.69376L9.9341 53.2519C10.3778 57.1557 13.2804 60.0071 16.6144 60.0071C16.904 60.0071 17.1998 59.9858 17.4956 59.9431L46.1455 55.5771C49.8184 55.0083 52.4252 51.0903 51.9445 46.8381L51.9384 46.831Z" fill="#9CD2ED"/>
<path d="M28.8903 38.8883V48.2389L41.8071 33.3349H33.7032C31.0472 33.3349 28.8903 35.8236 28.8903 38.8883Z" fill="#3392D0"/>
<path d="M26.9614 38.8884C26.9614 34.6006 29.9872 31.1093 33.7032 31.1093H42.3679V7.77909C42.3679 3.49135 39.342 0 35.626 0H6.74188C3.02584 0 0 3.49135 0 7.77909V41.114C0 45.4018 3.02584 48.8931 6.74188 48.8931H26.9614V38.8955V38.8884ZM8.66461 8.88836H33.6971C34.2271 8.88836 34.6585 9.38611 34.6585 9.99763C34.6585 10.6091 34.2271 11.1069 33.6971 11.1069H8.66461C8.13463 11.1069 7.70325 10.6091 7.70325 9.99763C7.70325 9.38611 8.13463 8.88836 8.66461 8.88836ZM8.66461 17.7767H33.6971C34.2271 17.7767 34.6585 18.2745 34.6585 18.886C34.6585 19.4975 34.2271 19.9953 33.6971 19.9953H8.66461C8.13463 19.9953 7.70325 19.4975 7.70325 18.886C7.70325 18.2745 8.13463 17.7767 8.66461 17.7767ZM24.7613 28.8836H8.66461C8.13463 28.8836 7.70325 28.3859 7.70325 27.7744C7.70325 27.1628 8.13463 26.6651 8.66461 26.6651H24.7613C25.2913 26.6651 25.7227 27.1628 25.7227 27.7744C25.7227 28.3859 25.2913 28.8836 24.7613 28.8836Z" fill="#005D92"/>
</g>
<defs>
<clipPath id="clip0_68_2">
<rect width="52" height="60" fill="white"/>
</clipPath>
</defs>
</svg>
