<svg width="60" height="60" viewBox="0 0 60 60" fill="none" xmlns="http://www.w3.org/2000/svg">
<g clip-path="url(#clip0_12_39)">
<path d="M30 60C46.5685 60 60 46.5685 60 30C60 13.4315 46.5685 0 30 0C13.4315 0 0 13.4315 0 30C0 46.5685 13.4315 60 30 60Z" fill="#133553"/>
<path d="M20.05 13.57H14.42C14.05 13.57 13.71 13.88 13.71 14.28V19.91C13.71 20.28 14.02 20.62 14.42 20.62H20.05C20.42 20.62 20.76 20.31 20.76 19.91V14.28C20.76 13.87 20.42 13.57 20.05 13.57Z" fill="white"/>
<path d="M32.97 13.57H27.34C26.97 13.57 26.63 13.88 26.63 14.28V19.91C26.63 20.28 26.94 20.62 27.34 20.62H32.97C33.34 20.62 33.68 20.31 33.68 19.91V14.28C33.68 13.87 33.34 13.57 32.97 13.57Z" fill="white"/>
<path d="M45.58 13.57H39.99C39.62 13.57 39.28 13.88 39.28 14.28V19.91C39.28 20.28 39.59 20.62 39.99 20.62H45.58C45.95 20.62 46.29 20.31 46.29 19.91V14.28C46.29 13.87 45.98 13.57 45.58 13.57Z" fill="#9CD2ED"/>
<path d="M20.05 26.42H14.42C14.05 26.42 13.71 26.73 13.71 27.13V32.76C13.71 33.13 14.02 33.47 14.42 33.47H20.05C20.42 33.47 20.76 33.16 20.76 32.76V27.13C20.76 26.72 20.42 26.42 20.05 26.42Z" fill="white"/>
<path d="M32.97 26.42H27.34C26.97 26.42 26.63 26.73 26.63 27.13V32.76C26.63 33.13 26.94 33.47 27.34 33.47H32.97C33.34 33.47 33.68 33.16 33.68 32.76V27.13C33.68 26.72 33.34 26.42 32.97 26.42Z" fill="#008074"/>
<path d="M45.58 26.42H39.99C39.62 26.42 39.28 26.73 39.28 27.13V32.76C39.28 33.13 39.59 33.47 39.99 33.47H45.58C45.95 33.47 46.29 33.16 46.29 32.76V27.13C46.29 26.72 45.98 26.42 45.58 26.42Z" fill="white"/>
<path d="M20.05 39.24H14.42C14.05 39.24 13.71 39.58 13.71 39.95V45.58C13.71 45.95 14.02 46.29 14.42 46.29H20.05C20.42 46.29 20.76 45.98 20.76 45.58V39.95C20.76 39.58 20.42 39.24 20.05 39.24Z" fill="#3392D0"/>
<path d="M32.97 39.37H27.34C26.97 39.37 26.63 39.68 26.63 40.08V45.71C26.63 46.08 26.94 46.42 27.34 46.42H32.97C33.34 46.42 33.68 46.11 33.68 45.71V40.05C33.68 39.68 33.34 39.37 32.97 39.37Z" fill="white"/>
<path d="M45.58 39.24H39.99C39.62 39.24 39.28 39.55 39.28 39.95V45.58C39.28 45.95 39.59 46.29 39.99 46.29H45.58C45.95 46.29 46.29 45.98 46.29 45.58V39.95C46.29 39.58 45.98 39.24 45.58 39.24Z" fill="white"/>
</g>
<defs>
<clipPath id="clip0_12_39">
<rect width="60" height="60" fill="white"/>
</clipPath>
</defs>
</svg>
