<svg width="442" height="134" viewBox="0 0 442 134" fill="none" xmlns="http://www.w3.org/2000/svg">
<g clip-path="url(#clip0_1_9)">
<path d="M22.34 22.92H0V89.31H22.34V22.92Z" fill="#EEF5F7"/>
<path d="M95.15 22.92L74.16 58.26L52.55 22.92H34.19V89.31H54.54V60.08L68.93 83.34H78.77L93.19 59.03L93.35 89.31H113.7L113.51 22.92H95.15Z" fill="#EEF5F7"/>
<path d="M187.35 29.71C184 26.58 180.06 24.16 175.52 22.46C170.98 20.75 165.99 19.9 160.56 19.9C155.13 19.9 150.23 20.75 145.65 22.46C141.07 24.17 137.11 26.59 133.77 29.71C130.42 32.84 127.82 36.51 125.96 40.71C124.1 44.92 123.17 49.55 123.17 54.6C123.17 59.65 124.1 64.21 125.96 68.45C127.82 72.69 130.42 76.37 133.77 79.5C137.11 82.63 141.07 85.05 145.65 86.76C150.22 88.47 155.19 89.32 160.56 89.32C165.93 89.32 170.97 88.47 175.52 86.76C180.06 85.05 184.01 82.63 187.35 79.5C190.69 76.37 193.3 72.69 195.16 68.45C197.02 64.22 197.95 59.6 197.95 54.6C197.95 49.6 197.02 44.91 195.16 40.71C193.3 36.51 190.7 32.84 187.35 29.71ZM174.29 61.57C173.53 63.63 172.48 65.36 171.12 66.79C169.76 68.21 168.19 69.3 166.39 70.06C164.59 70.82 162.65 71.2 160.57 71.2C158.49 71.2 156.55 70.82 154.75 70.06C152.95 69.3 151.37 68.21 150.02 66.79C148.66 65.37 147.61 63.63 146.85 61.57C146.09 59.52 145.71 57.19 145.71 54.6C145.71 52.01 146.09 49.68 146.85 47.63C147.61 45.58 148.66 43.84 150.02 42.41C151.38 40.99 152.95 39.9 154.75 39.14C156.55 38.38 158.49 38 160.57 38C162.65 38 164.59 38.38 166.39 39.14C168.19 39.9 169.76 40.99 171.12 42.41C172.48 43.83 173.53 45.57 174.29 47.63C175.05 49.69 175.43 52.01 175.43 54.6C175.43 57.19 175.05 59.52 174.29 61.57Z" fill="#EEF5F7"/>
<path d="M183.47 0.830017H163.12L150.63 16H164.83L183.47 0.830017Z" fill="#EEF5F7"/>
<path d="M236.3 61.67L220.54 22.92H196.49L224.51 89.31H246.47L274.49 22.92H252.53L236.3 61.67Z" fill="#EEF5F7"/>
<path d="M304.97 63.7H332.98V47.58H304.97V39.81H336.87V22.93H283.01V89.31H338.1V72.43H304.97V63.7Z" fill="#EEF5F7"/>
<path d="M368.97 22.93H346.63V89.32H368.97V22.93Z" fill="#EEF5F7"/>
<path d="M439.42 59.72C438.09 57.38 436.34 55.49 434.17 54.03C431.99 52.58 429.61 51.41 427.02 50.52C424.43 49.64 421.83 48.94 419.21 48.43C416.59 47.92 414.19 47.45 412.02 47.01C409.84 46.57 408.09 46.01 406.77 45.35C405.44 44.69 404.78 43.79 404.78 42.65C404.78 41.89 405.05 41.2 405.58 40.56C406.12 39.93 407.01 39.42 408.28 39.04C409.54 38.66 411.25 38.47 413.39 38.47C416.29 38.47 419.27 38.88 422.33 39.7C425.39 40.52 428.56 41.76 431.84 43.4L438.56 27.18C435.09 25.22 431.18 23.77 426.82 22.82C422.47 21.87 418.05 21.4 413.57 21.4C406.76 21.4 401.06 22.41 396.49 24.44C391.91 26.46 388.48 29.17 386.17 32.55C383.87 35.93 382.72 39.68 382.72 43.79C382.72 47.33 383.38 50.29 384.71 52.66C386.04 55.03 387.79 56.94 389.96 58.4C392.14 59.86 394.53 61.02 397.15 61.91C399.77 62.8 402.37 63.51 404.96 64.04C407.55 64.58 409.93 65.08 412.11 65.56C414.29 66.03 416.04 66.62 417.36 67.31C418.68 68.01 419.35 68.95 419.35 70.16C419.35 70.92 419.07 71.57 418.5 72.1C417.93 72.64 417.03 73.05 415.8 73.33C414.57 73.61 412.88 73.76 410.74 73.76C407.08 73.76 403.31 73.21 399.43 72.1C395.55 70.99 392.03 69.52 388.88 67.69L381.69 84C385.03 86.02 389.29 87.67 394.47 88.93C399.64 90.19 405.01 90.83 410.56 90.83C417.44 90.83 423.15 89.8 427.69 87.75C432.23 85.7 435.66 82.98 437.96 79.59C440.26 76.21 441.41 72.49 441.41 68.45C441.41 64.97 440.75 62.06 439.42 59.72Z" fill="#EEF5F7"/>
<path d="M292.44 110.78H298.36L307.79 133.14H301.21L299.6 129.18H291.05L289.47 133.14H283.01L292.44 110.78ZM297.82 124.38L295.35 118.07L292.85 124.38H297.82Z" fill="#fff"/>
<path d="M337.82 128.22V128.16C337.82 124.61 340.51 122.77 344.53 122.77C346.11 122.77 347.66 123.09 348.64 123.44V123.15C348.64 121.37 347.53 120.36 345.22 120.36C343.42 120.36 342.02 120.71 340.5 121.31L339.27 117.06C341.2 116.27 343.26 115.73 346.2 115.73C349.14 115.73 351.36 116.46 352.72 117.82C354.02 119.09 354.56 120.86 354.56 123.27V133.13H348.61V131.35C347.44 132.65 345.82 133.51 343.58 133.51C340.32 133.51 337.82 131.64 337.82 128.21V128.22ZM348.71 126.92V126.13C348.11 125.88 347.25 125.69 346.37 125.69C344.63 125.69 343.62 126.55 343.62 127.81V127.87C343.62 129.04 344.51 129.74 345.74 129.74C347.48 129.74 348.72 128.63 348.72 126.92H348.71Z" fill="#fff"/>
<path d="M356.43 129.17L364.34 120.77H356.71V115.98H371.25L372.32 119.94L364.38 128.34H372.32V133.13H357.5L356.43 129.17Z" fill="#fff"/>
<path d="M373.08 124.64V124.58C373.08 119.57 376.66 115.61 381.72 115.61C387.64 115.61 390.36 119.95 390.36 125C390.36 125.38 390.36 125.82 390.33 126.24H378.87C379.34 128.11 380.71 129.06 382.57 129.06C383.99 129.06 385.13 128.52 386.37 127.32L389.69 130.08C388.04 132.17 385.67 133.57 382.25 133.57C376.87 133.57 373.07 129.99 373.07 124.66L373.08 124.64ZM384.73 123.15C384.51 121.25 383.4 120.04 381.75 120.04C380.1 120.04 379.09 121.28 378.78 123.15H384.73Z" fill="#fff"/>
<path d="M393.37 127.81V120.83H391.34V115.98H393.37V113.31L399.38 111.64V115.98H403.37V120.83H399.38V126.63C399.38 127.83 399.92 128.34 401.03 128.34C401.82 128.34 402.58 128.12 403.31 127.77V132.49C402.23 133.09 400.81 133.47 399.13 133.47C395.52 133.47 393.37 131.88 393.37 127.79V127.81Z" fill="#fff"/>
<path d="M404.52 128.22V128.16C404.52 124.61 407.21 122.77 411.23 122.77C412.81 122.77 414.36 123.09 415.34 123.44V123.15C415.34 121.37 414.23 120.36 411.92 120.36C410.12 120.36 408.72 120.71 407.2 121.31L405.97 117.06C407.9 116.27 409.96 115.73 412.9 115.73C415.84 115.73 418.06 116.46 419.42 117.82C420.72 119.09 421.26 120.86 421.26 123.27V133.13H415.31V131.35C414.14 132.65 412.52 133.51 410.28 133.51C407.02 133.51 404.52 131.64 404.52 128.21V128.22ZM415.4 126.92V126.13C414.8 125.88 413.94 125.69 413.06 125.69C411.32 125.69 410.31 126.55 410.31 127.81V127.87C410.31 129.04 411.2 129.74 412.43 129.74C414.17 129.74 415.41 128.63 415.41 126.92H415.4Z" fill="#fff"/>
<path d="M330.07 122V127.36C329.15 127.96 328.01 128.28 326.53 128.28C323.02 128.28 320.52 125.71 320.52 122.13V122.07C320.52 118.68 322.99 115.98 326.18 115.98C328.36 115.98 329.95 116.74 331.53 118.07L335.14 113.73C332.8 111.7 330.04 110.5 326.15 110.5C319.28 110.5 314.22 115.57 314.22 122.04V122.1C314.22 128.82 319.38 133.58 326.28 133.58C330.3 133.58 333.56 132.09 335.9 130.15V122H330.08H330.07Z" fill="#fff"/>
<path d="M440.01 120.32C440.42 120.32 440.75 119.99 440.75 119.58C440.75 119.17 440.42 118.84 440.01 118.84C439.6 118.84 439.27 119.17 439.27 119.58C439.27 119.99 439.6 120.32 440.01 120.32Z" fill="#fff"/>
<path d="M432.42 106.46C427.58 106.46 423.65 110.39 423.65 115.24C423.65 120.09 427.57 124.02 432.42 124.02C435.16 124.02 437.61 122.76 439.22 120.78C438.82 120.52 438.56 120.08 438.56 119.57C438.56 118.77 439.21 118.12 440 118.12C440.23 118.12 440.45 118.18 440.65 118.27C441 117.32 441.19 116.3 441.19 115.23C441.19 110.38 437.27 106.45 432.42 106.45V106.46ZM437.3 115.83V119.3C437.17 119.46 437.03 119.61 436.88 119.76C435.68 120.97 434.08 121.63 432.37 121.63C428.85 121.63 426 118.76 426 115.24C426 111.72 428.86 108.85 432.37 108.85C434.07 108.85 435.67 109.51 436.88 110.72L434.84 112.77C434.18 112.11 433.31 111.75 432.37 111.75C430.45 111.75 428.88 113.32 428.88 115.24C428.88 117.16 430.44 118.73 432.37 118.73C433.11 118.73 433.82 118.5 434.41 118.07V115.24H437.29V115.83H437.3Z" fill="#fff"/>
</g>
<defs>
<clipPath id="clip0_1_9">
<rect width="442" height="134" fill="white"/>
</clipPath>
</defs>
</svg>
