<svg width="134" height="176" viewBox="0 0 134 176" fill="none" xmlns="http://www.w3.org/2000/svg">
<g clip-path="url(#clip0_1_42)">
<path d="M67.11 29.24L100.2 14.62V43.86L67.11 58.48V29.24Z" fill="#9CD2ED"/>
<path d="M67.11 87.72L100.2 73.1V102.34L67.11 116.95V87.72Z" fill="#1577A2"/>
<path d="M67.11 146.19L100.2 131.57V160.81L67.11 175.43V146.19Z" fill="#1E2B3D"/>
<path d="M66.7 58.66L33.61 44.04V73.28L66.7 87.9V58.66Z" fill="#9BCED1"/>
<path d="M34.02 73.1V102.33L0.919983 87.72V58.48L34.02 73.1Z" fill="#64C0C1"/>
<path d="M34.02 131.57L67.11 146.19V175.43L34.02 160.81V131.57Z" fill="#2D7079"/>
<path d="M0.919983 116.95L34.02 131.57V160.81L0.919983 146.19V116.95Z" fill="#008074"/>
<path d="M67.11 116.95V146.19L34.01 131.57V102.33L67.11 116.95Z" fill="#5CA2A8"/>
<path d="M100.2 43.86L133.3 29.24V58.48L100.2 73.1V43.86Z" fill="#3392D0"/>
<path d="M100.2 102.33L133.3 87.72V116.95L100.2 131.57V102.33Z" fill="#005D92"/>
<path d="M100.2 131.57L133.3 116.95V146.19L100.2 160.81V131.57Z" fill="#133553"/>
<path d="M34.02 14.62L67.11 0L100.2 14.62L67.11 29.24L34.02 14.62Z" fill="#EEF5F7"/>
</g>
<defs>
<clipPath id="clip0_1_42">
<rect width="134" height="176" fill="white"/>
</clipPath>
</defs>
</svg>
