<svg width="190" height="34" viewBox="0 0 190 34" fill="none" xmlns="http://www.w3.org/2000/svg">
<g clip-path="url(#clip0_19_103)">
<path d="M144.508 1.8385H151.664L151.873 3.58257H149.207V10.1307H146.965V3.58257H144.508V1.8385Z" fill="#605F5F"/>
<path d="M156.034 6.74961H157.668L156.832 4.49554L156.034 6.74961ZM152.614 10.1307L155.749 1.8385H157.991L161.114 10.03L158.91 10.2504L158.308 8.49369H155.42L154.844 10.1244H152.614V10.1307Z" fill="#605F5F"/>
<path d="M164.952 8.38665H168.505L168.714 10.1307H162.716V1.8385H164.952V8.38665Z" fill="#605F5F"/>
<path d="M172.558 7.63743V10.1308H170.316V1.83854H172.558V4.71594L175.915 1.65594L177.65 2.89632L174.806 5.52817L178.188 10.1308H175.345L173.204 7.03298L172.558 7.63743Z" fill="#605F5F"/>
<path d="M145.268 15.6652H144.508V23.9574H145.268V15.6652Z" fill="#605F5F"/>
<path d="M154.337 17.2266L151.74 21.1052L151.493 21.1555L148.859 17.2896V23.9574H148.099V15.6652H148.529L151.588 20.0285L154.603 15.6652H155.11V23.9574H154.337V17.2266Z" fill="#605F5F"/>
<path d="M162.304 13.0459L161.259 14.9096L160.765 14.7522L161.43 13.0459H162.304ZM161.335 16.1185C160.734 16.1185 160.202 16.2759 159.727 16.597C159.258 16.9118 158.884 17.3526 158.618 17.9129C158.352 18.4733 158.219 19.1029 158.219 19.8018C158.219 20.5007 158.346 21.1115 158.606 21.6592C158.865 22.207 159.22 22.6415 159.676 22.95C160.132 23.2648 160.645 23.4222 161.221 23.4222C161.798 23.4222 162.355 23.2648 162.824 22.9437C163.292 22.6289 163.666 22.1881 163.932 21.6277C164.198 21.0674 164.331 20.4315 164.331 19.7263C164.331 19.0211 164.204 18.4166 163.945 17.8689C163.685 17.3211 163.33 16.8929 162.874 16.5844C162.418 16.2759 161.905 16.1185 161.329 16.1185M157.409 19.8144C157.409 18.9959 157.58 18.2529 157.915 17.5981C158.251 16.937 158.72 16.4207 159.309 16.0366C159.904 15.6526 160.575 15.4574 161.323 15.4385C162.064 15.4385 162.722 15.6211 163.311 15.9863C163.9 16.3515 164.356 16.8615 164.686 17.51C165.015 18.1585 165.18 18.8952 165.18 19.7137C165.18 20.5322 165.009 21.2752 164.673 21.9363C164.337 22.5974 163.869 23.12 163.273 23.504C162.672 23.8881 162 24.0833 161.253 24.0896C160.525 24.0896 159.866 23.907 159.277 23.5418C158.688 23.1766 158.232 22.6666 157.903 22.0181C157.573 21.3696 157.409 20.6329 157.409 19.8081" fill="#605F5F"/>
<path d="M166.256 15.7282L167.004 15.6022L169.847 22.9815L172.564 15.6652H173.293L170.253 23.9574H169.455L166.256 15.7282Z" fill="#605F5F"/>
<path d="M179.778 23.3466L179.848 23.9574H175.079V15.6652H179.791L179.848 16.2129H175.839V19.4303H178.79L178.853 19.9844H175.839V23.3466H179.778Z" fill="#605F5F"/>
<path d="M182.52 15.6652H181.76V23.9574H182.52V15.6652Z" fill="#605F5F"/>
<path d="M187.112 24.1148C186.757 24.1148 186.365 24.0644 185.934 23.97C185.497 23.8692 185.149 23.7496 184.876 23.6048L185.06 23.0192C185.32 23.1515 185.636 23.2585 185.997 23.3529C186.358 23.4474 186.726 23.4915 187.106 23.4915C187.796 23.4915 188.328 23.3529 188.708 23.0759C189.088 22.7989 189.278 22.44 189.278 22.0055C189.278 21.697 189.196 21.4326 189.025 21.2059C188.854 20.9792 188.613 20.7778 188.296 20.5889C187.98 20.4 187.549 20.1922 186.998 19.9655C185.491 19.3296 184.737 18.5048 184.737 17.4911C184.737 17.1196 184.845 16.7733 185.06 16.4648C185.275 16.1563 185.586 15.9107 185.978 15.7344C186.371 15.5581 186.827 15.4637 187.346 15.4637C187.733 15.4637 188.1 15.5078 188.461 15.5959C188.816 15.6841 189.139 15.7974 189.417 15.9359L189.145 16.5089C188.847 16.3766 188.575 16.2759 188.322 16.2066C188.068 16.1311 187.752 16.0996 187.372 16.0996C186.783 16.0996 186.314 16.2255 185.972 16.4774C185.63 16.7292 185.453 17.0692 185.453 17.4911C185.453 17.7996 185.535 18.0641 185.706 18.2844C185.877 18.5048 186.111 18.7063 186.415 18.8826C186.719 19.0589 187.163 19.2918 187.758 19.5626C188.309 19.8144 188.74 20.0474 189.05 20.2615C189.36 20.4755 189.601 20.7211 189.766 20.9981C189.93 21.2752 190.013 21.6089 190.013 21.9992C190.013 22.3896 189.899 22.7674 189.671 23.0885C189.443 23.4096 189.107 23.6615 188.67 23.8378C188.233 24.0141 187.714 24.1085 187.125 24.1085" fill="#605F5F"/>
<path d="M101.397 17.3274L104.69 18.7692L105.564 19.1533L105.456 12.1455L101.257 10.4141L101.397 17.3274Z" fill="#605F5F"/>
<path d="M101.207 8.1411L104.918 9.63962L105.418 9.8411L105.311 2.66333L101.061 1.07666L101.207 8.1411Z" fill="#E9ECEC"/>
<path d="M105.703 28.2578L101.58 26.2996L101.441 19.5437L105.596 21.4074L105.703 28.2578Z" fill="#E9ECEC"/>
<path d="M106.831 0L101.061 1.07667L105.311 2.66333L111.106 1.54259L109.535 0.975926L106.831 0Z" fill="#C2C4C4"/>
<path d="M137.509 19.1848L134.108 20.0852L132.316 20.5574L132.468 13.5811L137.699 12.3093L137.509 19.1848Z" fill="black"/>
<path d="M137.256 28.1193L132.126 29.6241L132.272 22.8052L137.446 21.3948L137.256 28.1193Z" fill="#858686"/>
<path d="M132.671 4.14298L132.519 11.2893L133.931 10.9556L137.763 10.0489L137.959 3.00964L132.671 4.14298Z" fill="#858686"/>
<path d="M131.461 1.81964L127.933 2.54372L132.671 4.14298L137.959 3.00964L133.209 1.46075L131.461 1.81964Z" fill="#C2C4C4"/>
<path d="M107.154 19.8522L107.141 18.7755L107.059 12.8066L111.46 14.62L111.517 21.7726L110.447 21.3066L108.857 20.6078L107.154 19.8522Z" fill="#605F5F"/>
<path d="M111.441 12.2652L110.745 11.9818L109.136 11.3333L107.027 10.4833L107.014 9.4948L106.932 3.26776L111.384 4.92998L111.441 12.2652Z" fill="#E9ECEC"/>
<path d="M107.274 29.007L107.261 27.8422L107.185 22.1189L111.536 24.0707L111.593 31.0596L107.274 29.007Z" fill="#E9ECEC"/>
<path d="M111.112 2.44928L112.74 2.12817L113.816 2.51854L115.45 3.1104L117.217 3.74632L111.384 4.93003L106.932 3.2678L111.112 2.44928Z" fill="#C2C4C4"/>
<path d="M114.817 23.2271L113.183 22.5093L113.177 21.3571L113.145 15.3126L117.762 17.2141V24.5178L116.483 23.9574L114.817 23.2271Z" fill="#605F5F"/>
<path d="M113.234 30.6063L113.24 31.8467L117.762 34V26.8663L113.196 24.82L113.234 30.6063Z" fill="#E9ECEC"/>
<path d="M115.165 13.7574L113.132 12.9389L113.126 11.8874L113.088 5.56592L117.762 7.31629V14.8089L116.856 14.4374L115.165 13.7574Z" fill="#E9ECEC"/>
<path d="M118.934 4.36334L119.934 4.72853L121.891 5.43371L123.633 6.06334L117.762 7.31631L113.088 5.56594L117.217 4.71593L118.934 4.36334Z" fill="#C2C4C4"/>
<path d="M130.783 23.3026L130.695 28.1822L130.663 30.1782L125.267 31.7585L125.343 24.7822L130.783 23.3026Z" fill="#858686"/>
<path d="M127.458 21.9363L125.368 22.4904L125.444 15.3504L130.948 14.0093L130.859 19.1974L130.84 20.1796L130.821 21.0422L130.264 21.1934L128.953 21.5396L127.458 21.9363Z" fill="black"/>
<path d="M130.992 11.6985L130.03 11.9252L129.099 12.1455L127.382 12.5485L127.192 12.5926L125.47 13.0018L125.552 5.68554L131.119 4.49554L131.018 9.99851V10.1118L130.999 11.1381L130.992 11.6985Z" fill="#858686"/>
<path d="M126.388 2.87109L127.509 3.25517L129.232 3.84702L131.119 4.49554L125.552 5.68554L120.84 4.01702L124.418 3.28035L126.388 2.87109Z" fill="#C2C4C4"/>
<path d="M122.993 1.83854L124.431 2.32965L118.877 3.45669L114.386 1.86372L118.275 1.10187L119.915 0.780762L121.347 1.27187L122.993 1.83854Z" fill="#C2C4C4"/>
<path d="M123.576 13.4363L122.759 13.6252L121.847 13.8456L119.909 14.2989L119.827 14.3178L117.762 14.8089V7.31632L123.633 6.06335L123.589 11.6167V11.8119L123.582 12.8634L123.576 13.4363Z" fill="#858686"/>
<path d="M123.563 15.8037L123.525 21.017L123.513 22.1126L123.506 23.0004L123.088 23.1137L121.796 23.4537L120.181 23.8819L117.762 24.5178V17.2141L123.563 15.8037Z" fill="black"/>
<path d="M117.762 26.8663V34L123.443 32.3378L123.456 30.197L123.494 25.3111L117.762 26.8663Z" fill="#858686"/>
<path d="M145.426 27.0237C145.749 26.9104 146.123 26.86 146.547 26.86C147.016 26.86 147.421 26.9355 147.769 27.0867C148.118 27.2378 148.384 27.4455 148.567 27.7163C148.751 27.987 148.846 28.2955 148.846 28.6418C148.846 29.0385 148.713 29.4352 148.447 29.8192C148.181 30.2033 147.757 30.6378 147.187 31.1163L145.293 32.7092L149.106 32.7218L149.194 33.2633H144.387V32.7092L146.75 30.6881C147.269 30.2474 147.63 29.8885 147.826 29.6115C148.023 29.3344 148.124 29.0259 148.124 28.6796C148.124 28.2892 147.985 27.987 147.7 27.7667C147.415 27.5463 147.028 27.4392 146.541 27.4392C146.186 27.4392 145.882 27.4896 145.635 27.5904C145.388 27.6911 145.109 27.8296 144.786 28.0059L144.533 27.4392C144.805 27.2755 145.109 27.1433 145.432 27.03L145.426 27.0237Z" fill="#605F5F"/>
<path d="M156.611 33.4018C156.053 33.4018 155.553 33.257 155.116 32.9737C154.679 32.6904 154.331 32.2937 154.084 31.7837C153.837 31.2737 153.71 30.707 153.71 30.0711C153.71 29.4352 153.837 28.9063 154.084 28.4215C154.331 27.9304 154.679 27.5463 155.116 27.2693C155.553 26.9922 156.053 26.8537 156.611 26.8537C157.168 26.8537 157.656 26.9922 158.093 27.2693C158.53 27.5463 158.872 27.9241 159.119 28.4152C159.366 28.9 159.486 29.4478 159.486 30.0648C159.486 30.6818 159.366 31.2674 159.119 31.7774C158.872 32.2874 158.53 32.6841 158.093 32.9737C157.656 33.2633 157.162 33.4018 156.611 33.4018ZM156.611 27.4455C156.193 27.4455 155.819 27.5589 155.49 27.7856C155.16 28.0122 154.901 28.3207 154.717 28.7111C154.533 29.1078 154.438 29.5485 154.438 30.0459C154.438 30.5748 154.533 31.0533 154.717 31.4689C154.901 31.8907 155.16 32.2181 155.49 32.4511C155.819 32.6841 156.193 32.8037 156.611 32.8037C157.029 32.8037 157.39 32.6904 157.713 32.4574C158.042 32.2244 158.295 31.9033 158.485 31.4878C158.675 31.0722 158.764 30.6126 158.764 30.0963C158.764 29.58 158.669 29.133 158.485 28.73C158.302 28.327 158.042 28.0122 157.713 27.7856C157.383 27.5589 157.016 27.4455 156.611 27.4455Z" fill="#605F5F"/>
<path d="M165.104 27.0237C165.427 26.9104 165.8 26.86 166.225 26.86C166.693 26.86 167.099 26.9355 167.447 27.0867C167.795 27.2378 168.061 27.4455 168.245 27.7163C168.429 27.987 168.524 28.2955 168.524 28.6418C168.524 29.0385 168.391 29.4352 168.125 29.8192C167.859 30.2033 167.434 30.6378 166.864 31.1163L164.971 32.7092L168.783 32.7218L168.872 33.2633H164.065V32.7092L166.427 30.6881C166.947 30.2474 167.308 29.8885 167.504 29.6115C167.7 29.3344 167.802 29.0259 167.802 28.6796C167.802 28.2892 167.662 27.987 167.377 27.7667C167.092 27.5463 166.706 27.4392 166.218 27.4392C165.864 27.4392 165.56 27.4896 165.313 27.5904C165.066 27.6911 164.787 27.8296 164.464 28.0059L164.211 27.4392C164.483 27.2755 164.787 27.1433 165.11 27.03L165.104 27.0237Z" fill="#605F5F"/>
<path d="M176.035 33.427C175.636 33.427 175.281 33.3578 174.965 33.213C174.654 33.0682 174.401 32.873 174.217 32.6148C174.034 32.3567 173.932 32.0733 173.92 31.7459H174.553C174.572 32.0859 174.724 32.363 175.003 32.577C175.281 32.7911 175.623 32.9044 176.035 32.9044C176.352 32.9044 176.637 32.8352 176.89 32.703C177.137 32.5644 177.333 32.3819 177.473 32.1426C177.612 31.9033 177.682 31.6389 177.682 31.3367C177.682 31.0282 177.606 30.7511 177.454 30.5119C177.302 30.2726 177.105 30.09 176.846 29.9515C176.592 29.8193 176.307 29.75 175.991 29.75C175.75 29.75 175.516 29.7815 175.288 29.857C175.06 29.9326 174.863 30.0207 174.711 30.1341L174.059 30.0585L174.49 26.967H178.03V27.4896H175.041L174.756 29.6178H174.794C174.952 29.4982 175.142 29.4037 175.37 29.3282C175.598 29.2526 175.839 29.2148 176.092 29.2148C176.516 29.2148 176.89 29.303 177.232 29.4856C177.568 29.6682 177.834 29.9137 178.03 30.2285C178.226 30.5433 178.328 30.9085 178.328 31.3178C178.328 31.727 178.226 32.0796 178.03 32.3944C177.834 32.7093 177.561 32.9611 177.219 33.1437C176.877 33.3263 176.485 33.4144 176.041 33.4144L176.035 33.427Z" fill="#605F5F"/>
<path d="M4.237 18.8259H9.63933V15.747H4.237V14.2674H10.3867V11.0437H0V23.7118H10.6273V20.4881H4.237V18.8259Z" fill="#605F5F"/>
<path d="M21.603 16.9811C21.185 16.7041 20.7227 16.4837 20.2223 16.3137C19.722 16.1437 19.2217 16.0115 18.715 15.917C18.2083 15.8226 17.746 15.7281 17.328 15.6463C16.91 15.5644 16.568 15.4574 16.3147 15.3315C16.0613 15.2056 15.9283 15.0356 15.9283 14.8152C15.9283 14.6704 15.979 14.5381 16.0867 14.4185C16.188 14.2989 16.3653 14.2044 16.606 14.1289C16.8467 14.0596 17.176 14.0218 17.594 14.0218C18.1513 14.0218 18.7277 14.0974 19.3167 14.2548C19.9057 14.4122 20.52 14.6452 21.1533 14.96L22.4517 11.8685C21.7803 11.497 21.0267 11.22 20.1907 11.0374C19.3483 10.8548 18.4997 10.7667 17.632 10.7667C16.3147 10.7667 15.219 10.9618 14.3387 11.3459C13.4583 11.73 12.7933 12.2463 12.35 12.8948C11.9067 13.5433 11.685 14.2548 11.685 15.0418C11.685 15.7156 11.8117 16.2822 12.0713 16.7356C12.3247 17.1889 12.6667 17.5541 13.0847 17.8311C13.5027 18.1081 13.965 18.3285 14.4717 18.4985C14.9783 18.6685 15.4787 18.8007 15.979 18.9078C16.4793 19.0085 16.9353 19.1093 17.3597 19.1974C17.7777 19.2856 18.1197 19.3989 18.373 19.5311C18.6263 19.6633 18.7593 19.8459 18.7593 20.0726C18.7593 20.2174 18.7023 20.3433 18.5947 20.4441C18.487 20.5448 18.3097 20.6267 18.0753 20.677C17.841 20.7337 17.5117 20.7589 17.1 20.7589C16.397 20.7589 15.6687 20.6518 14.9213 20.4441C14.174 20.23 13.4963 19.953 12.8883 19.6004L11.5013 22.7107C12.1473 23.0948 12.9707 23.4096 13.965 23.6489C14.9593 23.8881 15.998 24.0078 17.0683 24.0078C18.392 24.0078 19.494 23.8126 20.3743 23.4222C21.2483 23.0318 21.9133 22.5093 22.3567 21.867C22.8 21.2248 23.0217 20.5133 23.0217 19.7389C23.0217 19.0778 22.895 18.5237 22.6417 18.0767C22.3883 17.6296 22.0463 17.2707 21.6283 16.9937L21.603 16.9811Z" fill="#605F5F"/>
<path d="M33.5223 11.623C32.6547 11.2389 31.6223 11.0437 30.4253 11.0437H24.2757V23.7056H28.5823V20.5952H30.4253C31.616 20.5952 32.6483 20.4 33.5223 20.0096C34.39 19.6193 35.0677 19.0652 35.5427 18.3537C36.0177 17.6422 36.252 16.7985 36.252 15.8226C36.252 14.8467 36.0177 13.9967 35.5427 13.2789C35.0677 12.5611 34.3963 12.007 33.5223 11.623ZM31.483 16.9056C31.198 17.17 30.7547 17.3022 30.1593 17.3022H28.5887V14.3367H30.1593C30.7547 14.3367 31.198 14.4689 31.483 14.7333C31.768 14.9978 31.9137 15.363 31.9137 15.8163C31.9137 16.2696 31.768 16.6348 31.483 16.8993V16.9056Z" fill="#605F5F"/>
<path d="M41.895 18.8259H47.2973V15.747H41.895V14.2674H48.0447V11.0437H37.658V23.7118H48.2853V20.4881H41.895V18.8259Z" fill="#605F5F"/>
<path d="M54.6123 15.0608C54.872 14.7837 55.1887 14.5696 55.5497 14.4248C55.917 14.28 56.3223 14.2045 56.772 14.2045C57.342 14.2045 57.855 14.3367 58.3173 14.5948C58.7733 14.853 59.1913 15.2182 59.565 15.6904L62.282 13.2852C61.6487 12.4667 60.8507 11.8371 59.8817 11.4026C58.9127 10.9682 57.8043 10.7541 56.5503 10.7541C55.5307 10.7541 54.5807 10.9115 53.713 11.2326C52.8453 11.5537 52.0917 12.0071 51.452 12.5989C50.8123 13.1908 50.3183 13.8896 49.9637 14.6956C49.609 15.5015 49.4317 16.3956 49.4317 17.3715C49.4317 18.3474 49.609 19.2415 49.9637 20.0474C50.3183 20.8533 50.8123 21.5522 51.452 22.1441C52.0917 22.7359 52.8453 23.1893 53.713 23.5104C54.5807 23.8315 55.5307 23.9889 56.5503 23.9889C57.8043 23.9889 58.9127 23.7685 59.8817 23.3278C60.8507 22.8871 61.6487 22.2637 62.282 21.4578L59.565 19.0526C59.185 19.5248 58.7733 19.89 58.3173 20.1482C57.8613 20.4063 57.3483 20.5385 56.772 20.5385C56.3223 20.5385 55.917 20.4693 55.5497 20.3245C55.1823 20.1796 54.872 19.9656 54.6123 19.6885C54.3527 19.4115 54.15 19.0778 53.998 18.6874C53.8523 18.2971 53.7763 17.8563 53.7763 17.3778C53.7763 16.8993 53.8523 16.4585 53.998 16.0682C54.1437 15.6778 54.3463 15.3441 54.6123 15.0671V15.0608Z" fill="#605F5F"/>
<path d="M67.8363 11.0437H63.5297V23.7056H67.8363V11.0437Z" fill="#605F5F"/>
<path d="M74.1127 11.0437L68.5267 23.7056H72.9093L73.7643 21.4956H78.622L79.477 23.7056H83.9293L78.3433 11.0437H74.1063H74.1127ZM74.9613 18.4293L76.1963 15.237L77.4313 18.4293H74.955H74.9613Z" fill="#605F5F"/>
<path d="M88.939 20.4V11.0437H84.6323V23.7118H94.7087V20.4H88.939Z" fill="#605F5F"/>
</g>
<defs>
<clipPath id="clip0_19_103">
<rect width="190" height="34" fill="white"/>
</clipPath>
</defs>
</svg>
