<?xml version="1.0" encoding="UTF-8"?>
<svg id="Layer_2" data-name="Layer 2" xmlns="http://www.w3.org/2000/svg" viewBox="0 0 172.44 56.78">
  <defs>
    <style>
      .cls-1 {
        fill: #fff;
        stroke-width: 0px;
      }
    </style>
  </defs>
  <g id="Camada_1" data-name="Camada 1">
    <g>
      <g>
        <g>
          <path class="cls-1" d="M47.09,18.31s0-.05,0-.07c0-.03,0-.05,0-.08,0-.03,0-.05-.02-.08,0-.02,0-.05-.02-.07,0-.03-.02-.05-.02-.07,0-.02-.02-.05-.02-.07-.01-.02-.02-.05-.03-.07-.01-.02-.02-.04-.03-.07-.01-.02-.03-.04-.04-.06-.01-.02-.03-.04-.04-.06-.02-.02-.03-.04-.05-.06-.02-.02-.03-.04-.05-.06-.02-.02-.04-.03-.06-.05-.02-.02-.04-.03-.06-.05-.02-.01-.04-.03-.06-.04-.02-.01-.04-.03-.06-.04,0,0,0,0-.01,0,0,0,0,0,0,0L28.54,7.4c-.36-.2-.8-.19-1.16.02l-16.97,10.18s-.03.02-.05.03c-.02.02-.05.03-.07.05-.02.02-.04.03-.06.05-.02.02-.04.03-.06.05-.02.02-.03.04-.05.06-.02.02-.03.04-.05.06-.02.02-.03.04-.04.06-.01.02-.03.04-.04.06-.01.02-.02.05-.04.07-.01.02-.02.04-.03.06-.01.02-.02.05-.03.07,0,.02-.02.04-.02.07,0,.03-.01.05-.02.08,0,.02-.01.05-.01.07,0,.03,0,.05,0,.08,0,.02,0,.04,0,.06l-.15,19.63c0,.42.22.8.58,1.01l17.34,10.12c.18.11.38.16.59.16s.4-.05.58-.15c.06-.03.11-.07.16-.12l17.52-10.04c.36-.21.58-.59.59-1.01l.06-19.88s0,0,0,0c0,0,0,0,0,0ZM28,9.76l15.56,8.58-15.31,8.82-14.95-8.58,14.7-8.82ZM27.03,46.33l-15.01-8.76.13-16.97,6.6,3.79,8.34,4.78-.06,17.16ZM29.42,46.29v-17.12l15.34-8.84-.05,17.19-15.29,8.76Z"/>
          <path class="cls-1" d="M50.27,41.82c-4.55,7.39-12.75,12.31-22.06,12.25-14.12-.1-25.72-11.97-25.51-26.09C2.92,14.01,14.36,2.7,28.39,2.7c9.13,0,17.16,4.79,21.72,11.98.15.24.47.32.72.18l1.41-.81c.27-.15.35-.5.19-.76C47.34,5.23,38.31-.11,28.07,0,12.53.18-.23,13.29,0,28.83c.24,15.45,12.88,27.95,28.39,27.95,10.22,0,19.2-5.43,24.2-13.56.16-.26.08-.6-.18-.75l-1.4-.82c-.25-.15-.58-.07-.73.18Z"/>
        </g>
        <g>
          <path class="cls-1" d="M61.31,17.89c5.21,0,9.22,3.91,9.22,9.27,0,.35-.05,1-.1,1.35-.05.5-.45.85-.9.85h-13.62c.15,2.7,2.5,5.36,5.76,5.36,1.8,0,3.46-.8,4.46-1.45.6-.35.95-.55,1.35-.05l1.4,1.9c.35.4.5.8-.1,1.3-1.45,1.25-4.06,2.5-7.41,2.5-6.06,0-10.07-4.76-10.07-10.52s4.01-10.52,10.02-10.52ZM65.87,26.2c-.15-2.4-2.15-4.46-4.61-4.46-2.7,0-4.81,1.95-5.11,4.46h9.72Z"/>
          <path class="cls-1" d="M71.69,35.82l1.05-1.95c.2-.4.75-.55,1.25-.25,0,0,2.2,1.3,4.66,1.3,1.5,0,2.45-.6,2.45-1.7,0-1.35-1.1-2-3.86-3.26-3.11-1.35-5.71-3.26-5.71-6.56,0-2.5,2.05-5.51,6.86-5.51,2.8,0,4.91.9,5.91,1.55.45.3.7.95.4,1.45l-.9,1.7c-.25.45-.9.6-1.3.4,0,0-2.2-1.05-4.11-1.05-1.7,0-2.25.75-2.25,1.5,0,1.3,1.25,1.85,3.21,2.7,3.66,1.6,6.66,3.16,6.66,6.91,0,3.11-2.96,5.86-7.41,5.86-3.36,0-5.56-1.2-6.61-2.05-.3-.2-.5-.65-.3-1.05Z"/>
          <path class="cls-1" d="M145.37,18.89c0-.53.45-1,.95-1h2.85c.5,0,.95.47.95,1v19.03c0,.53-.45,1-.95,1h-2.85c-.5,0-.95-.47-.95-1v-19.03Z"/>
          <path class="cls-1" d="M162.33,17.89c5.61,0,10.12,4.81,10.12,10.47s-4.51,10.57-10.12,10.57-10.12-4.81-10.12-10.57,4.51-10.47,10.12-10.47ZM162.33,34.61c3.16,0,5.66-2.8,5.66-6.26s-2.5-6.11-5.66-6.11-5.66,2.75-5.66,6.11,2.5,6.26,5.66,6.26Z"/>
          <path class="cls-1" d="M99.09,34.47c-.06-.01-.12-.02-.19-.02h-2.28s-.04,0-.04,0c-.94,0-1.57-.32-1.57-2v-10.41h5.11c.55,0,.95-.45.95-.95v-2.25c0-.55-.4-.95-.95-.95h-5.11v-4.89c0-.5-.4-.95-.9-.95l-2.85.05c-.5,0-.95.45-.95.95v4.84h-2.43c-.55,0-.95.4-.95.95v2.25c0,.5.4.95.95.95h2.43v10.91c0,3.55,1.15,5.96,5.11,5.96.03,0,.06,0,.09,0h0s1.28,0,1.28,0h0s2.12,0,2.12,0c.5,0,.87-.48.87-1.02v-2.42c0-.51-.28-.91-.68-1Z"/>
          <path class="cls-1" d="M143.29,12.99c0-.5-.45-.95-.95-.95h-2.91c-.5,0-.95.45-.95.95v5.99c-.45-.15-2.25-1.1-4.81-1.1-5.56,0-9.87,4.66-9.87,10.52s4.06,10.52,9.37,10.52c2.45,0,4.3-1.07,5.36-1.89v.94c0,.5.45.95.95.95h2.85c.5,0,.95-.45.95-.95v-.5s0,0,0,0V12.99ZM133.78,34.61c-3.21,0-5.31-2.85-5.31-6.21s2.35-6.16,5.71-6.16c2.6,0,4.36,1.2,4.36,1.2v8.16c-.25.55-1.7,3.01-4.76,3.01Z"/>
          <g>
            <path class="cls-1" d="M120.78,17.89h-2.85c-.5,0-.95.45-.95.95v12.47c-.15.9-2.01,3.3-4.96,3.3-2.55,0-4.11-1.75-4.11-5.01v-10.76c0-.5-.45-.95-.95-.95h-2.85c-.5,0-.95.45-.95.95v10.61c0,5.21,2.1,9.47,8.11,9.47,2.8,0,4.67-1.12,5.71-1.95v1c0,.5.45.95.95.95h2.85c.5,0,.95-.45.95-.95v-19.13c0-.5-.45-.95-.95-.95Z"/>
            <path class="cls-1" d="M120.81,12.14c.53,0,.92.45.92.95v1.6c0,.5-.39.95-.92.95h-7.46c-.48,0-.92-.45-.92-.95v-1.6c0-.5.43-.95.92-.95h7.46Z"/>
          </g>
        </g>
      </g>
      <g>
        <path class="cls-1" d="M128.61,42.07c1.19,0,2.32.43,3.22,1.15.11.1.12.25.01.34l-.82.8c-.11.1-.22.1-.34,0-.57-.47-1.26-.71-1.99-.71-1.65,0-2.95,1.32-2.95,2.86s1.3,2.82,2.96,2.82c.74,0,1.3-.21,1.57-.31v-1.05h-1.05c-.14,0-.25-.1-.25-.22v-.97c0-.14.11-.23.25-.23h2.53c.13,0,.24.11.24.23v3.15c0,.1-.05.16-.11.2,0,0-1.36.8-3.27.8-2.62,0-4.73-1.95-4.73-4.41s2.11-4.45,4.73-4.45Z"/>
        <path class="cls-1" d="M132.97,50.49l4.1-8.29c.04-.07.11-.14.22-.14h.13c.13,0,.18.06.22.14l4.06,8.29c.08.16-.03.32-.22.32h-1.15c-.2,0-.29-.07-.38-.25l-.65-1.33h-3.94l-.65,1.33c-.05.12-.17.25-.38.25h-1.15c-.2,0-.3-.16-.22-.32ZM138.66,47.87l-1.32-2.71h-.04l-1.29,2.71h2.65Z"/>
        <path class="cls-1" d="M142.29,50.36l3.93-6.63v-.05h-3.29c-.13,0-.25-.11-.25-.23v-1.02c0-.12.12-.23.25-.23h5.51c.13,0,.25.11.25.23v.16l-3.87,6.71v.02h3.36c.14,0,.25.11.25.23v1.02c0,.12-.11.23-.25.23h-5.63c-.13,0-.25-.11-.25-.23v-.22Z"/>
        <path class="cls-1" d="M150.5,42.42c0-.12.11-.23.25-.23h5.36c.14,0,.25.11.25.23v1.01c0,.12-.11.23-.25.23h-3.9v2.02h3.25c.13,0,.25.11.25.23v1.02c0,.14-.12.23-.25.23h-3.25v2.16h3.9c.14,0,.25.11.25.23v1.01c0,.12-.11.23-.25.23h-5.36c-.14,0-.25-.11-.25-.23v-8.15Z"/>
        <path class="cls-1" d="M159.73,43.67h-2.02c-.14,0-.25-.11-.25-.23v-1.01c0-.12.11-.23.25-.23h5.76c.14,0,.25.11.25.23v1.01c0,.12-.11.23-.25.23h-2.02v6.91c0,.12-.12.23-.25.23h-1.23c-.13,0-.25-.11-.25-.23v-6.91Z"/>
        <path class="cls-1" d="M163.65,50.49l4.1-8.29c.04-.07.11-.14.22-.14h.13c.13,0,.18.06.22.14l4.06,8.29c.08.16-.03.32-.22.32h-1.15c-.2,0-.29-.07-.38-.25l-.65-1.33h-3.94l-.65,1.33c-.05.12-.17.25-.38.25h-1.15c-.2,0-.3-.16-.22-.32ZM169.34,47.87l-1.32-2.71h-.04l-1.29,2.71h2.65Z"/>
      </g>
    </g>
  </g>
</svg>