<svg width="574" height="100" viewBox="0 0 574 100" fill="none" xmlns="http://www.w3.org/2000/svg">
<path d="M567.26 75.72C569.32 75.72 570.99 74.05 570.99 71.98C570.99 69.91 569.32 68.24 567.26 68.24C565.2 68.24 563.53 69.91 563.53 71.98C563.53 74.05 565.2 75.72 567.26 75.72Z" fill="black"/>
<path d="M529.11 6C504.75 6 485 25.79 485 50.2C485 74.61 504.75 94.4 529.11 94.4C542.92 94.4 555.24 88.04 563.33 78.09C561.33 76.79 560.01 74.55 560.01 71.98C560.01 67.96 563.26 64.71 567.27 64.71C568.44 64.71 569.54 64.99 570.52 65.48C572.27 60.72 573.23 55.57 573.23 50.2C573.22 25.79 553.47 6 529.11 6ZM553.66 53.15V70.62C553 71.42 552.31 72.19 551.57 72.92C545.51 78.99 537.46 82.33 528.89 82.33C511.2 82.33 496.81 67.91 496.81 50.19C496.81 32.47 511.21 18.06 528.89 18.06C537.46 18.06 545.51 21.4 551.57 27.47L541.3 37.76C537.99 34.44 533.58 32.61 528.89 32.61C519.21 32.61 511.34 40.5 511.34 50.19C511.34 59.88 519.21 67.77 528.89 67.77C532.63 67.77 536.2 66.6 539.17 64.44V50.19H553.66V53.14V53.15Z" fill="black"/>
<path d="M22.34 22.09H0V88.48H22.34V22.09Z" fill="#1577A2"/>
<path d="M95.15 22.09L74.16 57.43L52.55 22.09H34.19V88.48H54.54V59.25L68.93 82.51H78.77L93.19 58.2L93.35 88.48H113.7L113.51 22.09H95.15Z" fill="#1577A2"/>
<path d="M187.35 28.88C184 25.75 180.06 23.33 175.52 21.63C170.98 19.92 165.99 19.0699 160.56 19.0699C155.13 19.0699 150.23 19.92 145.65 21.63C141.07 23.34 137.11 25.76 133.77 28.88C130.42 32.01 127.82 35.68 125.96 39.88C124.1 44.09 123.17 48.72 123.17 53.77C123.17 58.82 124.1 63.3799 125.96 67.6199C127.82 71.8599 130.42 75.54 133.77 78.67C137.11 81.8 141.07 84.22 145.65 85.93C150.22 87.64 155.19 88.49 160.56 88.49C165.93 88.49 170.97 87.64 175.52 85.93C180.06 84.22 184.01 81.8 187.35 78.67C190.69 75.54 193.3 71.8599 195.16 67.6199C197.02 63.3899 197.95 58.77 197.95 53.77C197.95 48.77 197.02 44.08 195.16 39.88C193.3 35.68 190.7 32.01 187.35 28.88ZM174.29 60.74C173.53 62.8 172.48 64.5299 171.12 65.9599C169.76 67.3799 168.19 68.4699 166.39 69.2299C164.59 69.9899 162.65 70.3699 160.57 70.3699C158.49 70.3699 156.55 69.9899 154.75 69.2299C152.95 68.4699 151.37 67.3799 150.02 65.9599C148.66 64.5399 147.61 62.8 146.85 60.74C146.09 58.69 145.71 56.36 145.71 53.77C145.71 51.18 146.09 48.85 146.85 46.8C147.61 44.75 148.66 43.01 150.02 41.58C151.38 40.16 152.95 39.07 154.75 38.31C156.55 37.55 158.49 37.17 160.57 37.17C162.65 37.17 164.59 37.55 166.39 38.31C168.19 39.07 169.76 40.16 171.12 41.58C172.48 43 173.53 44.74 174.29 46.8C175.05 48.86 175.43 51.18 175.43 53.77C175.43 56.36 175.05 58.69 174.29 60.74Z" fill="#1577A2"/>
<path d="M183.47 0H163.12L150.63 15.17H164.83L183.47 0Z" fill="#1577A2"/>
<path d="M236.3 60.84L220.54 22.09H196.49L224.51 88.48H246.47L274.49 22.09H252.53L236.3 60.84Z" fill="#1577A2"/>
<path d="M304.97 62.87H332.98V46.75H304.97V38.98H336.87V22.1H283.01V88.48H338.1V71.6H304.97V62.87Z" fill="#1577A2"/>
<path d="M368.97 22.1H346.63V88.49H368.97V22.1Z" fill="#1577A2"/>
<path d="M439.42 58.89C438.09 56.55 436.34 54.66 434.17 53.2C431.99 51.75 429.61 50.58 427.02 49.69C424.43 48.81 421.83 48.1099 419.21 47.5999C416.59 47.0899 414.19 46.6199 412.02 46.1799C409.84 45.7399 408.09 45.18 406.77 44.52C405.44 43.86 404.78 42.9599 404.78 41.8199C404.78 41.0599 405.05 40.3699 405.58 39.7299C406.12 39.0999 407.01 38.5899 408.28 38.2099C409.54 37.8299 411.25 37.64 413.39 37.64C416.29 37.64 419.27 38.0499 422.33 38.8699C425.39 39.6899 428.56 40.9299 431.84 42.5699L438.56 26.3499C435.09 24.3899 431.18 22.94 426.82 21.99C422.47 21.04 418.05 20.5699 413.57 20.5699C406.76 20.5699 401.06 21.58 396.49 23.61C391.91 25.63 388.48 28.34 386.17 31.72C383.87 35.1 382.72 38.8499 382.72 42.9599C382.72 46.4999 383.38 49.46 384.71 51.83C386.04 54.2 387.79 56.1099 389.96 57.5699C392.14 59.0299 394.53 60.19 397.15 61.08C399.77 61.97 402.37 62.6799 404.96 63.2099C407.55 63.7499 409.93 64.2499 412.11 64.7299C414.29 65.1999 416.04 65.7899 417.36 66.4799C418.68 67.1799 419.35 68.12 419.35 69.33C419.35 70.09 419.07 70.74 418.5 71.27C417.93 71.81 417.03 72.22 415.8 72.5C414.57 72.78 412.88 72.9299 410.74 72.9299C407.08 72.9299 403.31 72.38 399.43 71.27C395.55 70.16 392.03 68.69 388.88 66.86L381.69 83.17C385.03 85.19 389.29 86.8399 394.47 88.0999C399.64 89.3599 405.01 89.9999 410.56 89.9999C417.44 89.9999 423.15 88.97 427.69 86.92C432.23 84.87 435.66 82.1499 437.96 78.7599C440.26 75.3799 441.41 71.6599 441.41 67.6199C441.41 64.1399 440.75 61.23 439.42 58.89Z" fill="#1577A2"/>
</svg>
