<svg width="722" height="212" viewBox="0 0 722 212" fill="none" xmlns="http://www.w3.org/2000/svg">
<g clip-path="url(#clip0_65_39)">
<path d="M546.148 159.176H553.147L564.295 185.61H556.516L554.613 180.928H544.505L542.637 185.61H535L546.148 159.176ZM552.508 175.254L549.588 167.794L546.633 175.254H552.508Z" fill="#629DC8"/>
<path d="M599.796 179.793V179.723C599.796 175.526 602.976 173.35 607.729 173.35C609.597 173.35 611.429 173.729 612.588 174.143V173.8C612.588 171.695 611.275 170.501 608.545 170.501C606.417 170.501 604.761 170.915 602.965 171.624L601.51 166.6C603.792 165.666 606.227 165.028 609.703 165.028C613.179 165.028 615.803 165.891 617.411 167.499C618.948 169 619.586 171.092 619.586 173.942V185.598H612.552V183.494C611.169 185.031 609.254 186.047 606.606 186.047C602.752 186.047 599.796 183.837 599.796 179.782V179.793ZM612.67 178.257V177.323C611.961 177.027 610.944 176.803 609.904 176.803C607.847 176.803 606.653 177.819 606.653 179.309V179.38C606.653 180.763 607.705 181.59 609.159 181.59C611.216 181.59 612.682 180.278 612.682 178.257H612.67Z" fill="#629DC8"/>
<path d="M621.797 180.917L631.148 170.986H622.128V165.323H639.317L640.582 170.005L631.195 179.935H640.582V185.598H623.062L621.797 180.917Z" fill="#629DC8"/>
<path d="M641.48 175.561V175.49C641.48 169.567 645.713 164.886 651.695 164.886C658.693 164.886 661.909 170.016 661.909 175.987C661.909 176.436 661.909 176.956 661.873 177.453H648.325C648.881 179.663 650.501 180.786 652.7 180.786C654.378 180.786 655.726 180.148 657.192 178.729L661.117 181.992C659.166 184.463 656.364 186.118 652.321 186.118C645.961 186.118 641.469 181.886 641.469 175.585L641.48 175.561ZM655.253 173.8C654.993 171.553 653.681 170.123 651.73 170.123C649.78 170.123 648.586 171.589 648.219 173.8H655.253Z" fill="#629DC8"/>
<path d="M665.467 179.309V171.057H663.067V165.323H665.467V162.167L672.572 160.193V165.323H677.289V171.057H672.572V177.914C672.572 179.332 673.211 179.935 674.523 179.935C675.457 179.935 676.355 179.675 677.218 179.261V184.841C675.942 185.551 674.263 186 672.277 186C668.009 186 665.467 184.12 665.467 179.285V179.309Z" fill="#629DC8"/>
<path d="M678.649 179.793V179.723C678.649 175.526 681.829 173.35 686.581 173.35C688.449 173.35 690.282 173.729 691.44 174.143V173.8C691.44 171.695 690.128 170.501 687.397 170.501C685.269 170.501 683.614 170.915 681.817 171.624L680.363 166.6C682.645 165.666 685.08 165.028 688.556 165.028C692.031 165.028 694.656 165.891 696.264 167.499C697.8 169 698.439 171.092 698.439 173.942V185.598H691.405V183.494C690.022 185.031 688.106 186.047 685.458 186.047C681.604 186.047 678.649 183.837 678.649 179.782V179.793ZM691.511 178.257V177.323C690.802 177.027 689.785 176.803 688.745 176.803C686.688 176.803 685.494 177.819 685.494 179.309V179.38C685.494 180.763 686.546 181.59 688 181.59C690.057 181.59 691.523 180.278 691.523 178.257H691.511Z" fill="#629DC8"/>
<path d="M590.634 172.44V178.777C589.547 179.486 588.199 179.864 586.449 179.864C582.3 179.864 579.344 176.826 579.344 172.594V172.523C579.344 168.515 582.264 165.323 586.035 165.323C588.613 165.323 590.492 166.222 592.36 167.794L596.628 162.663C593.862 160.264 590.599 158.845 586 158.845C577.878 158.845 571.896 164.839 571.896 172.488V172.558C571.896 180.503 577.996 186.13 586.154 186.13C590.906 186.13 594.76 184.369 597.526 182.075V172.44H590.646H590.634Z" fill="#629DC8"/>
<path d="M720.605 170.454C721.09 170.454 721.48 170.064 721.48 169.579C721.48 169.095 721.09 168.704 720.605 168.704C720.12 168.704 719.73 169.095 719.73 169.579C719.73 170.064 720.12 170.454 720.605 170.454Z" fill="#629DC8"/>
<path d="M711.632 154.069C705.91 154.069 701.264 158.715 701.264 164.448C701.264 170.182 705.899 174.828 711.632 174.828C714.871 174.828 717.768 173.339 719.671 170.998C719.198 170.691 718.891 170.17 718.891 169.567C718.891 168.622 719.659 167.853 720.593 167.853C720.865 167.853 721.125 167.924 721.362 168.031C721.775 166.907 722 165.702 722 164.437C722 158.703 717.366 154.057 711.632 154.057V154.069ZM717.401 165.146V169.248C717.248 169.437 717.082 169.615 716.905 169.792C715.486 171.223 713.595 172.003 711.573 172.003C707.412 172.003 704.042 168.61 704.042 164.448C704.042 160.287 707.424 156.894 711.573 156.894C713.583 156.894 715.474 157.675 716.905 159.105L714.493 161.528C713.713 160.748 712.684 160.323 711.573 160.323C709.303 160.323 707.447 162.179 707.447 164.448C707.447 166.718 709.291 168.574 711.573 168.574C712.448 168.574 713.287 168.302 713.985 167.794V164.448H717.389V165.146H717.401Z" fill="#629DC8"/>
<path d="M80.1533 35.2403L120.034 17.6201V52.8605L80.1533 70.4806V35.2403Z" fill="#9CD2ED"/>
<path d="M80.1533 105.721L120.034 88.1008V123.341L80.1533 140.949V105.721Z" fill="#1577A2"/>
<path d="M80.1533 176.19L120.034 158.57V193.81L80.1533 211.43V176.19Z" fill="#1E2B3D"/>
<path d="M79.6591 70.6977L39.7787 53.0775V88.3179L79.6591 105.938V70.6977Z" fill="#9BCED1"/>
<path d="M40.2728 88.1008V123.329L0.380341 105.721V70.4806L40.2728 88.1008Z" fill="#64C0C1"/>
<path d="M40.2729 158.57L80.1533 176.19V211.43L40.2729 193.81V158.57Z" fill="#2D7079"/>
<path d="M0.380341 140.949L40.2728 158.569V193.81L0.380341 176.19V140.949Z" fill="#008074"/>
<path d="M80.1533 140.949V176.19L40.2608 158.57V123.329L80.1533 140.949Z" fill="#5CA2A8"/>
<path d="M120.034 52.8605L159.926 35.2404V70.4807L120.034 88.1009V52.8605Z" fill="#3392D0"/>
<path d="M120.034 123.329L159.926 105.721V140.949L120.034 158.569V123.329Z" fill="#005D92"/>
<path d="M120.034 158.569L159.926 140.949V176.19L120.034 193.81V158.569Z" fill="#133553"/>
<path d="M40.2729 17.6202L80.1533 0L120.034 17.6202L80.1533 35.2403L40.2729 17.6202Z" fill="#EEF5F7"/>
<path d="M214.056 51.7534H187V132.159H214.056V51.7534Z" fill="#1577A2"/>
<path d="M302.237 51.7534L276.816 94.5541L250.644 51.7534H228.408V132.159H253.054V96.7583L270.482 124.929H282.399L299.863 95.4866L300.057 132.159H324.703L324.473 51.7534H302.237Z" fill="#1577A2"/>
<path d="M413.902 59.9768C409.844 56.1861 405.073 53.2552 399.574 51.1963C394.076 49.1253 388.032 48.0958 381.456 48.0958C374.88 48.0958 368.945 49.1253 363.398 51.1963C357.851 53.2673 353.055 56.1982 349.01 59.9768C344.953 63.7676 341.804 68.2124 339.551 73.2991C337.299 78.3978 336.172 84.0053 336.172 90.1214C336.172 96.2375 337.299 101.76 339.551 106.895C341.804 112.03 344.953 116.487 349.01 120.278C353.055 124.069 357.851 127 363.398 129.071C368.933 131.142 374.952 132.171 381.456 132.171C387.96 132.171 394.064 131.142 399.574 129.071C405.073 127 409.856 124.069 413.902 120.278C417.947 116.487 421.108 112.03 423.36 106.895C425.613 101.772 426.739 96.177 426.739 90.1214C426.739 84.0658 425.613 78.3857 423.36 73.2991C421.108 68.2124 417.959 63.7676 413.902 59.9768ZM398.084 98.5628C397.164 101.058 395.892 103.153 394.245 104.885C392.598 106.605 390.697 107.925 388.517 108.845C386.337 109.766 383.987 110.226 381.468 110.226C378.949 110.226 376.599 109.766 374.419 108.845C372.239 107.925 370.326 106.605 368.691 104.885C367.044 103.165 365.772 101.058 364.852 98.5628C363.931 96.0801 363.471 93.2582 363.471 90.1214C363.471 86.9846 363.931 84.1627 364.852 81.68C365.772 79.1972 367.044 77.0898 368.691 75.358C370.338 73.6382 372.239 72.3181 374.419 71.3976C376.599 70.4772 378.949 70.0169 381.468 70.0169C383.987 70.0169 386.337 70.4772 388.517 71.3976C390.697 72.3181 392.598 73.6382 394.245 75.358C395.892 77.0777 397.164 79.1851 398.084 81.68C399.005 84.1748 399.465 86.9846 399.465 90.1214C399.465 93.2582 399.005 96.0801 398.084 98.5628Z" fill="#1577A2"/>
<path d="M409.203 25H384.556L369.43 43.3726H386.627L409.203 25Z" fill="#1577A2"/>
<path d="M473.186 98.684L454.098 51.7534H424.971L458.907 132.159H485.503L519.438 51.7534H492.842L473.186 98.684Z" fill="#1577A2"/>
<path d="M556.353 101.143H590.276V81.6194H556.353V72.2091H594.987V51.7655H529.757V132.159H596.477V111.716H556.353V101.143Z" fill="#1577A2"/>
<path d="M633.864 51.7655H606.807V132.171H633.864V51.7655Z" fill="#1577A2"/>
<path d="M719.186 96.3223C717.576 93.4883 715.456 91.1993 712.828 89.431C710.188 87.6749 707.305 86.2579 704.169 85.18C701.032 84.1143 697.883 83.2665 694.71 82.6488C691.537 82.0311 688.63 81.4619 686.002 80.929C683.362 80.3961 681.242 79.7179 679.644 78.9186C678.033 78.1193 677.234 77.0293 677.234 75.6486C677.234 74.7281 677.561 73.8925 678.202 73.1174C678.856 72.3544 679.934 71.7367 681.472 71.2765C682.998 70.8163 685.069 70.5862 687.661 70.5862C691.173 70.5862 694.783 71.0827 698.489 72.0758C702.195 73.0689 706.034 74.5707 710.006 76.5569L718.145 56.9127C713.942 54.5389 709.207 52.7828 703.926 51.6323C698.658 50.4817 693.305 49.9125 687.879 49.9125C679.632 49.9125 672.728 51.1357 667.193 53.5943C661.647 56.0407 657.492 59.3228 654.695 63.4164C651.909 67.5099 650.516 72.0516 650.516 77.0293C650.516 81.3166 651.316 84.9015 652.927 87.7718C654.537 90.6422 656.657 92.9554 659.285 94.7236C661.925 96.4918 664.82 97.8967 667.993 98.9746C671.166 100.052 674.315 100.912 677.452 101.554C680.588 102.208 683.471 102.814 686.111 103.395C688.751 103.964 690.871 104.679 692.469 105.515C694.068 106.362 694.879 107.501 694.879 108.966C694.879 109.887 694.54 110.674 693.85 111.316C693.16 111.97 692.07 112.466 690.58 112.805C689.09 113.145 687.044 113.326 684.452 113.326C680.019 113.326 675.453 112.66 670.754 111.316C666.055 109.972 661.792 108.191 657.977 105.975L649.269 125.728C653.314 128.174 658.473 130.173 664.747 131.699C671.008 133.225 677.512 134 684.234 134C692.566 134 699.482 132.752 704.98 130.27C710.479 127.787 714.633 124.493 717.418 120.387C720.204 116.293 721.597 111.788 721.597 106.895C721.597 102.681 720.797 99.1563 719.186 96.3223Z" fill="#1577A2"/>
</g>
<defs>
<clipPath id="clip0_65_39">
<rect width="722" height="212" fill="white"/>
</clipPath>
</defs>
</svg>
