<svg width="300" height="54" viewBox="0 0 300 54" fill="none" xmlns="http://www.w3.org/2000/svg">
<g clip-path="url(#clip0_2_2)">
<path d="M228.17 2.91998H239.47L239.8 5.68998H235.59V16.09H232.05V5.68998H228.17V2.91998Z" fill="white"/>
<path d="M246.37 10.72H248.95L247.63 7.13998L246.37 10.72ZM240.97 16.09L245.92 2.91998H249.46L254.39 15.93L250.91 16.28L249.96 13.49H245.4L244.49 16.08H240.97V16.09Z" fill="white"/>
<path d="M260.45 13.32H266.06L266.39 16.09H256.92V2.91998H260.45V13.32Z" fill="white"/>
<path d="M272.46 12.13V16.09H268.92V2.92H272.46V7.49L277.76 2.63L280.5 4.6L276.01 8.78L281.35 16.09H276.86L273.48 11.17L272.46 12.13Z" fill="white"/>
<path d="M229.37 24.88H228.17V38.05H229.37V24.88Z" fill="#C4C9CE"/>
<path d="M243.69 27.36L239.59 33.52L239.2 33.6L235.04 27.46V38.05H233.84V24.88H234.52L239.35 31.81L244.11 24.88H244.91V38.05H243.69V27.36Z" fill="#C4C9CE"/>
<path d="M256.27 20.72L254.62 23.68L253.84 23.43L254.89 20.72H256.27ZM254.74 25.6C253.79 25.6 252.95 25.85 252.2 26.36C251.46 26.86 250.87 27.56 250.45 28.45C250.03 29.34 249.82 30.34 249.82 31.45C249.82 32.56 250.02 33.53 250.43 34.4C250.84 35.27 251.4 35.96 252.12 36.45C252.84 36.95 253.65 37.2 254.56 37.2C255.47 37.2 256.35 36.95 257.09 36.44C257.83 35.94 258.42 35.24 258.84 34.35C259.26 33.46 259.47 32.45 259.47 31.33C259.47 30.21 259.27 29.25 258.86 28.38C258.45 27.51 257.89 26.83 257.17 26.34C256.45 25.85 255.64 25.6 254.73 25.6M248.54 31.47C248.54 30.17 248.81 28.99 249.34 27.95C249.87 26.9 250.61 26.08 251.54 25.47C252.48 24.86 253.54 24.55 254.72 24.52C255.89 24.52 256.93 24.81 257.86 25.39C258.79 25.97 259.51 26.78 260.03 27.81C260.55 28.84 260.81 30.01 260.81 31.31C260.81 32.61 260.54 33.79 260.01 34.84C259.48 35.89 258.74 36.72 257.8 37.33C256.85 37.94 255.79 38.25 254.61 38.26C253.46 38.26 252.42 37.97 251.49 37.39C250.56 36.81 249.84 36 249.32 34.97C248.8 33.94 248.54 32.77 248.54 31.46" fill="#C4C9CE"/>
<path d="M262.51 24.98L263.69 24.78L268.18 36.5L272.47 24.88H273.62L268.82 38.05H267.56L262.51 24.98Z" fill="#C4C9CE"/>
<path d="M283.86 37.08L283.97 38.05H276.44V24.88H283.88L283.97 25.75H277.64V30.86H282.3L282.4 31.74H277.64V37.08H283.86Z" fill="#C4C9CE"/>
<path d="M288.19 24.88H286.99V38.05H288.19V24.88Z" fill="#C4C9CE"/>
<path d="M295.44 38.3C294.88 38.3 294.26 38.22 293.58 38.07C292.89 37.91 292.34 37.72 291.91 37.49L292.2 36.56C292.61 36.77 293.11 36.94 293.68 37.09C294.25 37.24 294.83 37.31 295.43 37.31C296.52 37.31 297.36 37.09 297.96 36.65C298.56 36.21 298.86 35.64 298.86 34.95C298.86 34.46 298.73 34.04 298.46 33.68C298.19 33.32 297.81 33 297.31 32.7C296.81 32.4 296.13 32.07 295.26 31.71C292.88 30.7 291.69 29.39 291.69 27.78C291.69 27.19 291.86 26.64 292.2 26.15C292.54 25.66 293.03 25.27 293.65 24.99C294.27 24.71 294.99 24.56 295.81 24.56C296.42 24.56 297 24.63 297.57 24.77C298.13 24.91 298.64 25.09 299.08 25.31L298.65 26.22C298.18 26.01 297.75 25.85 297.35 25.74C296.95 25.62 296.45 25.57 295.85 25.57C294.92 25.57 294.18 25.77 293.64 26.17C293.1 26.57 292.82 27.11 292.82 27.78C292.82 28.27 292.95 28.69 293.22 29.04C293.49 29.39 293.86 29.71 294.34 29.99C294.82 30.27 295.52 30.64 296.46 31.07C297.33 31.47 298.01 31.84 298.5 32.18C298.99 32.52 299.37 32.91 299.63 33.35C299.89 33.79 300.02 34.32 300.02 34.94C300.02 35.56 299.84 36.16 299.48 36.67C299.12 37.18 298.59 37.58 297.9 37.86C297.21 38.14 296.39 38.29 295.46 38.29" fill="#C4C9CE"/>
<path d="M160.1 27.52L165.3 29.81L166.68 30.42L166.51 19.29L159.88 16.54L160.1 27.52Z" fill="#605F5F"/>
<path d="M159.8 12.93L165.66 15.31L166.45 15.63L166.28 4.23002L159.57 1.71002L159.8 12.93Z" fill="#E9ECEC"/>
<path d="M166.9 44.88L160.39 41.77L160.17 31.04L166.73 34L166.9 44.88Z" fill="#E9ECEC"/>
<path d="M168.68 0L159.57 1.71L166.28 4.23L175.43 2.45L172.95 1.55L168.68 0Z" fill="#C2C4C4"/>
<path d="M217.12 30.47L211.75 31.9L208.92 32.65L209.16 21.57L217.42 19.55L217.12 30.47Z" fill="black"/>
<path d="M216.72 44.66L208.62 47.05L208.85 36.22L217.02 33.98L216.72 44.66Z" fill="#858686"/>
<path d="M209.48 6.58003L209.24 17.93L211.47 17.4L217.52 15.96L217.83 4.78003L209.48 6.58003Z" fill="#858686"/>
<path d="M207.57 2.89001L202 4.04001L209.48 6.58001L217.83 4.78001L210.33 2.32001L207.57 2.89001Z" fill="#C2C4C4"/>
<path d="M169.19 31.53L169.17 29.82L169.04 20.34L175.99 23.22L176.08 34.58L174.39 33.84L171.88 32.73L169.19 31.53Z" fill="#605F5F"/>
<path d="M175.96 19.48L174.86 19.03L172.32 18L168.99 16.65L168.97 15.08L168.84 5.19L175.87 7.83L175.96 19.48Z" fill="#E9ECEC"/>
<path d="M169.38 46.07L169.36 44.22L169.24 35.13L176.11 38.23L176.2 49.33L169.38 46.07Z" fill="#E9ECEC"/>
<path d="M175.44 3.89L178.01 3.38L179.71 4L182.29 4.94L185.08 5.95L175.87 7.83L168.84 5.19L175.44 3.89Z" fill="#C2C4C4"/>
<path d="M181.29 36.89L178.71 35.75L178.7 33.92L178.65 24.32L185.94 27.34V38.94L183.92 38.05L181.29 36.89Z" fill="#605F5F"/>
<path d="M178.79 48.61L178.8 50.58L185.94 54V42.67L178.73 39.42L178.79 48.61Z" fill="#E9ECEC"/>
<path d="M181.84 21.85L178.63 20.55L178.62 18.88L178.56 8.84003L185.94 11.62V23.52L184.51 22.93L181.84 21.85Z" fill="#E9ECEC"/>
<path d="M187.79 6.92999L189.37 7.50999L192.46 8.62999L195.21 9.62999L185.94 11.62L178.56 8.83999L185.08 7.48999L187.79 6.92999Z" fill="#C2C4C4"/>
<path d="M206.5 37.01L206.36 44.76L206.31 47.93L197.79 50.44L197.91 39.36L206.5 37.01Z" fill="#858686"/>
<path d="M201.25 34.84L197.95 35.72L198.07 24.38L206.76 22.25L206.62 30.49L206.59 32.05L206.56 33.42L205.68 33.66L203.61 34.21L201.25 34.84Z" fill="black"/>
<path d="M206.83 18.58L205.31 18.94L203.84 19.29L201.13 19.93L200.83 20L198.11 20.65L198.24 9.03001L207.03 7.14001L206.87 15.88V16.06L206.84 17.69L206.83 18.58Z" fill="#858686"/>
<path d="M199.56 4.56L201.33 5.17L204.05 6.11L207.03 7.14L198.24 9.03L190.8 6.38L196.45 5.21L199.56 4.56Z" fill="#C2C4C4"/>
<path d="M194.2 2.91999L196.47 3.69999L187.7 5.48999L180.61 2.95999L186.75 1.74999L189.34 1.23999L191.6 2.01999L194.2 2.91999Z" fill="#C2C4C4"/>
<path d="M195.12 21.34L193.83 21.64L192.39 21.99L189.33 22.71L189.2 22.74L185.94 23.52V11.62L195.21 9.63L195.14 18.45V18.76L195.13 20.43L195.12 21.34Z" fill="#858686"/>
<path d="M189.2 22.74L189.32 22.79L189.33 22.71L189.2 22.74Z" fill="#EC6E71"/>
<path d="M195.1 25.1L195.04 33.38L195.02 35.12L195.01 36.53L194.35 36.71L192.31 37.25L189.76 37.93L185.94 38.94V27.34L195.1 25.1Z" fill="black"/>
<path d="M185.94 42.67V54L194.91 51.36L194.93 47.96L194.99 40.2L185.94 42.67Z" fill="#858686"/>
<path d="M189.2 22.74L189.32 22.79L189.33 22.71L189.2 22.74Z" fill="#EC6E71"/>
<path d="M229.62 42.92C230.13 42.74 230.72 42.66 231.39 42.66C232.13 42.66 232.77 42.78 233.32 43.02C233.87 43.26 234.29 43.59 234.58 44.02C234.87 44.45 235.02 44.94 235.02 45.49C235.02 46.12 234.81 46.75 234.39 47.36C233.97 47.97 233.3 48.66 232.4 49.42L229.41 51.95L235.43 51.97L235.57 52.83H227.98V51.95L231.71 48.74C232.53 48.04 233.1 47.47 233.41 47.03C233.72 46.59 233.88 46.1 233.88 45.55C233.88 44.93 233.66 44.45 233.21 44.1C232.76 43.75 232.15 43.58 231.38 43.58C230.82 43.58 230.34 43.66 229.95 43.82C229.56 43.98 229.12 44.2 228.61 44.48L228.21 43.58C228.64 43.32 229.12 43.11 229.63 42.93L229.62 42.92Z" fill="white"/>
<path d="M247.28 53.05C246.4 53.05 245.61 52.82 244.92 52.37C244.23 51.92 243.68 51.29 243.29 50.48C242.9 49.67 242.7 48.77 242.7 47.76C242.7 46.75 242.9 45.91 243.29 45.14C243.68 44.36 244.23 43.75 244.92 43.31C245.61 42.87 246.4 42.65 247.28 42.65C248.16 42.65 248.93 42.87 249.62 43.31C250.31 43.75 250.85 44.35 251.24 45.13C251.63 45.9 251.82 46.77 251.82 47.75C251.82 48.73 251.63 49.66 251.24 50.47C250.85 51.28 250.31 51.91 249.62 52.37C248.93 52.83 248.15 53.05 247.28 53.05ZM247.28 43.59C246.62 43.59 246.03 43.77 245.51 44.13C244.99 44.49 244.58 44.98 244.29 45.6C244 46.23 243.85 46.93 243.85 47.72C243.85 48.56 244 49.32 244.29 49.98C244.58 50.65 244.99 51.17 245.51 51.54C246.03 51.91 246.62 52.1 247.28 52.1C247.94 52.1 248.51 51.92 249.02 51.55C249.54 51.18 249.94 50.67 250.24 50.01C250.54 49.35 250.68 48.62 250.68 47.8C250.68 46.98 250.53 46.27 250.24 45.63C249.95 44.99 249.54 44.49 249.02 44.13C248.5 43.77 247.92 43.59 247.28 43.59Z" fill="white"/>
<path d="M260.69 42.92C261.2 42.74 261.79 42.66 262.46 42.66C263.2 42.66 263.84 42.78 264.39 43.02C264.94 43.26 265.36 43.59 265.65 44.02C265.94 44.45 266.09 44.94 266.09 45.49C266.09 46.12 265.88 46.75 265.46 47.36C265.04 47.97 264.37 48.66 263.47 49.42L260.48 51.95L266.5 51.97L266.64 52.83H259.05V51.95L262.78 48.74C263.6 48.04 264.17 47.47 264.48 47.03C264.79 46.59 264.95 46.1 264.95 45.55C264.95 44.93 264.73 44.45 264.28 44.1C263.83 43.75 263.22 43.58 262.45 43.58C261.89 43.58 261.41 43.66 261.02 43.82C260.63 43.98 260.19 44.2 259.68 44.48L259.28 43.58C259.71 43.32 260.19 43.11 260.7 42.93L260.69 42.92Z" fill="white"/>
<path d="M277.95 53.09C277.32 53.09 276.76 52.98 276.26 52.75C275.77 52.52 275.37 52.21 275.08 51.8C274.79 51.39 274.63 50.94 274.61 50.42H275.61C275.64 50.96 275.88 51.4 276.32 51.74C276.76 52.08 277.3 52.26 277.95 52.26C278.45 52.26 278.9 52.15 279.3 51.94C279.69 51.72 280 51.43 280.22 51.05C280.44 50.67 280.55 50.25 280.55 49.77C280.55 49.28 280.43 48.84 280.19 48.46C279.95 48.08 279.64 47.79 279.23 47.57C278.83 47.36 278.38 47.25 277.88 47.25C277.5 47.25 277.13 47.3 276.77 47.42C276.41 47.54 276.1 47.68 275.86 47.86L274.83 47.74L275.51 42.83H281.1V43.66H276.38L275.93 47.04H275.99C276.24 46.85 276.54 46.7 276.9 46.58C277.26 46.46 277.64 46.4 278.04 46.4C278.71 46.4 279.3 46.54 279.84 46.83C280.37 47.12 280.79 47.51 281.1 48.01C281.41 48.51 281.57 49.09 281.57 49.74C281.57 50.39 281.41 50.95 281.1 51.45C280.79 51.95 280.36 52.35 279.82 52.64C279.28 52.93 278.66 53.07 277.96 53.07L277.95 53.09Z" fill="white"/>
<path d="M6.69 29.9H15.22V25.01H6.69V22.66H16.4V17.54H0V37.66H16.78V32.54H6.69V29.9Z" fill="white"/>
<path d="M34.11 26.97C33.45 26.53 32.72 26.18 31.93 25.91C31.14 25.64 30.35 25.43 29.55 25.28C28.75 25.13 28.02 24.98 27.36 24.85C26.7 24.72 26.16 24.55 25.76 24.35C25.36 24.15 25.15 23.88 25.15 23.53C25.15 23.3 25.23 23.09 25.4 22.9C25.56 22.71 25.84 22.56 26.22 22.44C26.6 22.33 27.12 22.27 27.78 22.27C28.66 22.27 29.57 22.39 30.5 22.64C31.43 22.89 32.4 23.26 33.4 23.76L35.45 18.85C34.39 18.26 33.2 17.82 31.88 17.53C30.55 17.24 29.21 17.1 27.84 17.1C25.76 17.1 24.03 17.41 22.64 18.02C21.25 18.63 20.2 19.45 19.5 20.48C18.8 21.51 18.45 22.64 18.45 23.89C18.45 24.96 18.65 25.86 19.06 26.58C19.46 27.3 20 27.88 20.66 28.32C21.32 28.76 22.05 29.11 22.85 29.38C23.65 29.65 24.44 29.86 25.23 30.03C26.02 30.19 26.74 30.35 27.41 30.49C28.07 30.63 28.61 30.81 29.01 31.02C29.41 31.23 29.62 31.52 29.62 31.88C29.62 32.11 29.53 32.31 29.36 32.47C29.19 32.63 28.91 32.76 28.54 32.84C28.17 32.93 27.65 32.97 27 32.97C25.89 32.97 24.74 32.8 23.56 32.47C22.38 32.13 21.31 31.69 20.35 31.13L18.16 36.07C19.18 36.68 20.48 37.18 22.05 37.56C23.62 37.94 25.26 38.13 26.95 38.13C29.04 38.13 30.78 37.82 32.17 37.2C33.55 36.58 34.6 35.75 35.3 34.73C36 33.71 36.35 32.58 36.35 31.35C36.35 30.3 36.15 29.42 35.75 28.71C35.35 28 34.81 27.43 34.15 26.99L34.11 26.97Z" fill="white"/>
<path d="M52.93 18.46C51.56 17.85 49.93 17.54 48.04 17.54H38.33V37.65H45.13V32.71H48.04C49.92 32.71 51.55 32.4 52.93 31.78C54.3 31.16 55.37 30.28 56.12 29.15C56.87 28.02 57.24 26.68 57.24 25.13C57.24 23.58 56.87 22.23 56.12 21.09C55.37 19.95 54.31 19.07 52.93 18.46ZM49.71 26.85C49.26 27.27 48.56 27.48 47.62 27.48H45.14V22.77H47.62C48.56 22.77 49.26 22.98 49.71 23.4C50.16 23.82 50.39 24.4 50.39 25.12C50.39 25.84 50.16 26.42 49.71 26.84V26.85Z" fill="white"/>
<path d="M66.15 29.9H74.68V25.01H66.15V22.66H75.86V17.54H59.46V37.66H76.24V32.54H66.15V29.9Z" fill="white"/>
<path d="M86.23 23.92C86.64 23.48 87.14 23.14 87.71 22.91C88.29 22.68 88.93 22.56 89.64 22.56C90.54 22.56 91.35 22.77 92.08 23.18C92.8 23.59 93.46 24.17 94.05 24.92L98.34 21.1C97.34 19.8 96.08 18.8 94.55 18.11C93.02 17.42 91.27 17.08 89.29 17.08C87.68 17.08 86.18 17.33 84.81 17.84C83.44 18.35 82.25 19.07 81.24 20.01C80.23 20.95 79.45 22.06 78.89 23.34C78.33 24.62 78.05 26.04 78.05 27.59C78.05 29.14 78.33 30.56 78.89 31.84C79.45 33.12 80.23 34.23 81.24 35.17C82.25 36.11 83.44 36.83 84.81 37.34C86.18 37.85 87.68 38.1 89.29 38.1C91.27 38.1 93.02 37.75 94.55 37.05C96.08 36.35 97.34 35.36 98.34 34.08L94.05 30.26C93.45 31.01 92.8 31.59 92.08 32C91.36 32.41 90.55 32.62 89.64 32.62C88.93 32.62 88.29 32.51 87.71 32.28C87.13 32.05 86.64 31.71 86.23 31.27C85.82 30.83 85.5 30.3 85.26 29.68C85.03 29.06 84.91 28.36 84.91 27.6C84.91 26.84 85.03 26.14 85.26 25.52C85.49 24.9 85.81 24.37 86.23 23.93V23.92Z" fill="white"/>
<path d="M107.11 17.54H100.31V37.65H107.11V17.54Z" fill="white"/>
<path d="M117.02 17.54L108.2 37.65H115.12L116.47 34.14H124.14L125.49 37.65H132.52L123.7 17.54H117.01H117.02ZM118.36 29.27L120.31 24.2L122.26 29.27H118.35H118.36Z" fill="white"/>
<path d="M140.43 32.4V17.54H133.63V37.66H149.54V32.4H140.43Z" fill="white"/>
</g>
<defs>
<clipPath id="clip0_2_2">
<rect width="300" height="54" fill="white"/>
</clipPath>
</defs>
</svg>
